{
  "accessors": [
    {
      "bufferView": 2,
      "componentType": 5126,
      "count": 180,
      "max": [
        8.231749534606934,
        8.171730995178223,
        47.33884048461914
      ],
      "min": [
        -7.992549896240234,
        -8.171730995178223,
        0.0
      ],
      "type": "VEC3"
    },
    {
      "bufferView": 2,
      "byteOffset": 2160,
      "componentType": 5126,
      "count": 180,
      "max": [
        0.9973521828651428,
        0.9900804162025452,
        0.9255192279815674
      ],
      "min": [
        -0.9683709740638733,
        -0.9900804758071899,
        -0.7596135139465332
      ],
      "type": "VEC3"
    },
    {
      "bufferView": 3,
      "componentType": 5126,
      "count": 180,
      "max": [
        0.9925695657730103,
        1.0,
        0.6523221135139465,
        1.0
      ],
      "min": [
        -0.9962790012359619,
        -0.9889770746231079,
        -0.6798156499862671,
        1.0
      ],
      "type": "VEC4"
    },
    {
      "bufferView": 1,
      "componentType": 5126,
      "count": 180,
      "max": [
        0.8763557076454163,
        0.999500036239624
      ],
      "min": [
        0.0005000000237487257,
        0.0005000000237487257
      ],
      "type": "VEC2"
    },
    {
      "bufferView": 0,
      "componentType": 5125,
      "count": 846,
      "type": "SCALAR"
    }
  ],
  "asset": {
    "extras": {
      "author": "Terizmeh (https://sketchfab.com/Terizmeh)",
      "license": "CC-BY-4.0 (http://creativecommons.org/licenses/by/4.0/)",
      "source": "https://sketchfab.com/3d-models/bowling-pin-a17aca02e65f4ddf81c6dc42333fd3da",
      "title": "Bowling Pin"
    },
    "generator": "Sketchfab-12.68.0",
    "version": "2.0"
  },
  "bufferViews": [
    {
      "buffer": 0,
      "byteLength": 3384,
      "name": "floatBufferViews",
      "target": 34963
    },
    {
      "buffer": 0,
      "byteLength": 1440,
      "byteOffset": 3384,
      "byteStride": 8,
      "name": "floatBufferViews",
      "target": 34962
    },
    {
      "buffer": 0,
      "byteLength": 4320,
      "byteOffset": 4824,
      "byteStride": 12,
      "name": "floatBufferViews",
      "target": 34962
    },
    {
      "buffer": 0,
      "byteLength": 2880,
      "byteOffset": 9144,
      "byteStride": 16,
      "name": "floatBufferViews",
      "target": 34962
    }
  ],
  "buffers": [
    {
      "byteLength": 12024,
      "uri": "scene.bin"
    }
  ],
  "images": [
    {
      "uri": "textures/RootNode_baseColor.png"
    },
    {
      "uri": "textures/RootNode_metallicRoughness.png"
    },
    {
      "uri": "textures/RootNode_normal.png"
    }
  ],
  "materials": [
    {
      "doubleSided": true,
      "name": "RootNode",
      "normalTexture": {
        "index": 2,
        "scale": 0.6271212028734612
      },
      "pbrMetallicRoughness": {
        "baseColorTexture": {
          "index": 0
        },
        "metallicRoughnessTexture": {
          "index": 1
        },
        "roughnessFactor": 0.1365151607629025
      }
    }
  ],
  "meshes": [
    {
      "name": "Cylinder001__0",
      "primitives": [
        {
          "attributes": {
            "NORMAL": 1,
            "POSITION": 0,
            "TANGENT": 2,
            "TEXCOORD_0": 3
          },
          "indices": 4,
          "material": 0,
          "mode": 4
        }
      ]
    }
  ],
  "nodes": [
    {
      "children": [
        1
      ],
      "matrix": [
        0.0018394881626591086,
        0.0,
        0.0,
        0.0,
        0.0,
        7.042606752454195e-19,
        -0.0018394881626591086,
        0.0,
        0.0,
        0.0018394881626591086,
        7.042606752454195e-19,
        0.0,
        0.0,
        -3.5527136788005e-15,
        -3.552713678800502e-15,
        1.0
      ],
      "name": "Sketchfab_model"
    },
    {
      "children": [
        2
      ],
      "matrix": [
        1.0,
        0.0,
        0.0,
        0.0,
        0.0,
        0.0,
        1.0,
        0.0,
        0.0,
        -1.0,
        0.0,
        0.0,
        0.0,
        0.0,
        0.0,
        1.0
      ],
      "name": "ffb4f708c6e446159e2322f9908a5830.fbx"
    },
    {
      "children": [
        3
      ],
      "name": "RootNode"
    },
    {
      "children": [
        4
      ],
      "matrix": [
        1.0,
        0.0,
        0.0,
        0.0,
        0.0,
        2.220446049250313e-16,
        -1.0,
        0.0,
        0.0,
        1.0,
        2.220446049250313e-16,
        0.0,
        1.1708499193191528,
        0.0,
        -11.059283256530762,
        1.0
      ],
      "name": "Cylinder001"
    },
    {
      "mesh": 0,
      "name": "Cylinder001__0"
    }
  ],
  "samplers": [
    {
      "magFilter": 9729,
      "minFilter": 9987,
      "wrapS": 10497,
      "wrapT": 10497
    }
  ],
  "scene": 0,
  "scenes": [
    {
      "name": "Sketchfab_Scene",
      "nodes": [
        0
      ]
    }
  ],
  "textures": [
    {
      "sampler": 0,
      "source": 0
    },
    {
      "sampler": 0,
      "source": 1
    },
    {
      "sampler": 0,
      "source": 2
    }
  ]
}
